# xmcd CD database file
#
# Track frame offsets:
#	182
#	20220
#	37320
#	48195
#	62582
#	77082
#	90482
#	107445
#	119645
#	141032
#	153257
#	171045
#	189332
#	205607
#	228345
#	240857
#	263657
#
# Disc length: 3685 seconds
#
# Revision: 0
# Processed by: cddbd v1.4PL0 Copyright (c) Steve Scherf et al.
# Submitted via: CDex 1.51
#
DISCID=d40e6311
DTITLE=Big Joe Williams - The Final Years
DYEAR=1994
DGENRE=Blues
TTITLE0=Tailor Made Woman
TTITLE1=Highway 49
TTITLE2=Back Door
TTITLE3=Whistling Pine Blues
TTITLE4=Sunny Road Blues
TTITLE5=A Change Gotta Be Made
TTITLE6=No Spécial Rider Blues
TTITLE7=Baby, Please Don't Go
TTITLE8=I Beliewe I'll Make  a Change
TTITLE9=You're Dogging Me
TTITLE10=New Car Blues
TTITLE11=Black Rat Blues
TTITLE12=Mama, Don't Allow Me
TTITLE13=Down On Mr.Mace George's Farm
TTITLE14=Meet Me In The Bottom
TTITLE15=Muscle Shoals Blues
TTITLE16=Big Road Blues
EXTD=YEAR: 1994
EXTT0=
EXTT1=
EXTT2=
EXTT3=
EXTT4=
EXTT5=
EXTT6=
EXTT7=
EXTT8=
EXTT9=
EXTT10=
EXTT11=
EXTT12=
EXTT13=
EXTT14=
EXTT15=
EXTT16=
PLAYORDER=
